<svg width="26" height="26" viewBox="0 0 26 26" fill="none" xmlns="http://www.w3.org/2000/svg">
<g clip-path="url(#clip0_201_110)">
<path d="M4.90881 1.56573C4.48154 1.53103 4.00656 1.65464 3.56845 1.96258C3.18239 2.23149 2.34954 2.89292 1.57092 3.64108C1.18269 4.01408 0.811812 4.40226 0.525521 4.78394C0.23706 5.16561 -0.0145288 5.51476 0.000653425 6.02221C0.0158357 6.47762 0.061382 7.82432 1.03087 9.88884C2.00035 11.9512 3.88076 14.7812 7.54833 18.4505C11.2181 22.1198 14.0484 24 16.111 24.9693C18.1736 25.9387 19.5227 25.9842 19.9781 25.9994C20.4835 26.0146 20.8327 25.763 21.2144 25.4746C21.5961 25.1862 21.9843 24.8175 22.3574 24.4293C23.1035 23.6508 23.765 22.8181 24.0339 22.4321C24.6477 21.5581 24.5458 20.5258 23.8626 20.0466C23.4331 19.7451 19.4836 17.1168 18.8894 16.7525C18.2864 16.3838 17.5924 16.5508 16.9721 16.8783C16.4841 17.1363 15.1632 17.8932 14.7859 18.11C14.5017 17.93 13.4238 17.2122 11.1053 14.894C8.78459 12.5757 8.06886 11.4979 7.88884 11.2139C8.10573 10.8365 8.86049 9.52234 9.12076 9.02573C9.44609 8.40768 9.62828 7.70722 9.24005 7.10001C9.07738 6.84195 8.3378 5.71644 7.59171 4.5866C6.84344 3.45675 6.13422 2.38546 5.94987 2.12957V2.1274C5.70912 1.7956 5.33391 1.60043 4.90881 1.56573ZM13.2557 1.64256V2.75289C18.7668 2.75289 23.2499 7.23539 23.2499 12.7458H24.3604C24.3604 6.62385 19.3785 1.64256 13.2557 1.64256ZM4.80687 2.69991C4.95869 2.71943 5.04979 2.78015 5.04979 2.78015C5.13871 2.90376 5.91734 4.07047 6.66343 5.19814C7.40952 6.32799 8.17079 7.48602 8.3031 7.69638C8.32478 7.72891 8.35515 8.09757 8.13826 8.50744V8.5096C7.89318 8.97585 6.75018 10.9731 6.75018 10.9731L6.59186 11.2529L6.75452 11.5305C6.75452 11.5305 7.60689 12.9683 10.318 15.679C13.0312 18.3898 14.4692 19.2442 14.4692 19.2442L14.7468 19.4068L15.0266 19.2485C15.0266 19.2485 17.0198 18.1079 17.4904 17.8606C17.9004 17.6459 18.2691 17.6741 18.3124 17.7002C18.6963 17.9365 22.9625 20.7709 23.2249 20.9552C23.2336 20.9617 23.4657 21.313 23.1273 21.7945H23.1252C22.9213 22.0872 22.2533 22.9352 21.5571 23.6595C21.2079 24.0216 20.85 24.3599 20.5464 24.5876C20.2427 24.8153 19.9716 24.8869 20.015 24.8891C19.5422 24.8739 18.499 24.8631 16.5838 23.9631C14.6687 23.0653 11.936 21.2675 8.33346 17.6633C4.73313 14.0634 2.93514 11.331 2.03506 9.41391C1.13714 7.49903 1.1263 6.45593 1.11112 5.98535C1.11328 6.02872 1.18486 5.75547 1.41259 5.45187C1.64032 5.14827 1.9765 4.78828 2.3387 4.43913C3.06527 3.74301 3.91113 3.07508 4.20393 2.87123V2.8734C4.44467 2.70425 4.65505 2.68256 4.80687 2.69991ZM13.2557 4.71981V5.83014C17.0708 5.83014 20.1723 8.93341 20.1723 12.7458H21.2827C21.2827 8.3197 17.6824 4.71981 13.2557 4.71981ZM13.2557 7.74935V8.85968C15.3986 8.85968 17.1424 10.6032 17.1424 12.7458H18.2528C18.2528 9.98952 16.0102 7.74935 13.2557 7.74935Z" fill="black"/>
</g>
<defs>
<clipPath id="clip0_201_110">
<rect width="26" height="26" fill="white"/>
</clipPath>
</defs>
</svg>
