<svg width="25" height="25" viewBox="0 0 25 25" fill="none" xmlns="http://www.w3.org/2000/svg">
<g clip-path="url(#clip0_41_85)">
<path fill-rule="evenodd" clip-rule="evenodd" d="M18.2273 14.9814C17.9163 14.8265 16.3871 14.0778 16.102 13.9743C15.817 13.871 15.6096 13.8195 15.4023 14.1293C15.1949 14.4391 14.5988 15.1364 14.4174 15.343C14.236 15.5495 14.0546 15.5755 13.7435 15.4204C13.4325 15.2655 12.4303 14.9387 11.2424 13.8841C10.3178 13.0633 9.69353 12.0497 9.51214 11.7398C9.3307 11.4299 9.49274 11.2624 9.64846 11.108C9.78843 10.9693 9.95954 10.7465 10.115 10.5657C10.2706 10.385 10.3224 10.2558 10.426 10.0494C10.5297 9.84271 10.4779 9.66201 10.4001 9.5071C10.3224 9.35218 9.70033 7.82851 9.44118 7.20867C9.18871 6.60517 8.9323 6.6869 8.74136 6.67734C8.56016 6.66837 8.35257 6.66647 8.14528 6.66647C7.93794 6.66647 7.60095 6.74393 7.31583 7.05376C7.03078 7.36365 6.22729 8.11256 6.22729 9.63606C6.22729 11.1597 7.34174 12.6315 7.49728 12.8381C7.65282 13.0448 9.69042 16.1713 12.8105 17.512C13.5526 17.831 14.1319 18.0214 14.5836 18.1641C15.3287 18.3997 16.0067 18.3664 16.5426 18.2867C17.1402 18.1979 18.3828 17.538 18.642 16.815C18.9012 16.0918 18.9012 15.4721 18.8234 15.343C18.7457 15.2138 18.5383 15.1364 18.2273 14.9814ZM12.5523 22.693H12.5481C10.6916 22.6923 8.8707 22.1959 7.28223 21.2578L6.90442 21.0346L2.98869 22.0569L4.03385 18.2573L3.78788 17.8677C2.75222 16.2284 2.2052 14.3337 2.20604 12.3881C2.2083 6.71102 6.84957 2.09231 12.5564 2.09231C15.3198 2.09326 17.9175 3.16567 19.8709 5.11197C21.8243 7.05815 22.8994 9.64514 22.8983 12.3964C22.896 18.0739 18.2548 22.693 12.5523 22.693ZM21.3576 3.63309C19.0075 1.29148 15.8821 0.00136566 12.5522 0C5.69113 0 0.107077 5.557 0.104331 12.3873C0.103436 14.5707 0.676595 16.7018 1.76592 18.5806L0 25L6.59871 23.2773C8.41685 24.2643 10.4639 24.7845 12.5472 24.7852H12.5523H12.5523C19.4127 24.7852 24.9972 19.2276 25 12.3972C25.0013 9.08708 23.7077 5.97464 21.3576 3.63309Z" fill="black"/>
</g>
<defs>
<clipPath id="clip0_41_85">
<rect width="25" height="25" fill="white" transform="matrix(1 0 0 -1 0 25)"/>
</clipPath>
</defs>
</svg>
