<svg width="67" height="67" viewBox="0 0 67 67" fill="none" xmlns="http://www.w3.org/2000/svg">
<path d="M32.8751 14.2599C33.0086 14.3157 33.1458 14.3524 33.2836 14.3709L33.2991 14.3867L33.5109 14.385C34.1494 14.38 34.7488 13.993 35.0033 13.3629L35.1632 12.9671C37.08 8.44944 40.1881 4.89398 43.7943 2.75244C47.4031 0.609417 51.4964 -0.104448 55.3894 1.04626L55.5311 0.566773L55.3894 1.04627C56.8743 1.48513 58.3236 2.15368 59.6463 3.01665C60.9208 3.84815 62.0679 4.85688 63.0072 6.00818L63.3876 5.69783L63.0072 6.00818C65.1602 8.64696 66.217 11.2385 66.4498 13.8324C66.6831 16.4318 66.0929 19.0766 64.8807 21.8237C62.4454 27.3424 57.5601 33.1541 52.0718 39.6754L52.0593 39.6903C45.6426 47.3144 38.479 55.8259 33.5688 65.8489C28.6309 55.8366 21.4472 47.3486 15.0124 39.7456L14.9991 39.7299C9.49189 33.2228 4.58978 27.4237 2.13881 21.911C0.918771 19.1669 0.321024 16.5235 0.547065 13.9233C0.772632 11.3285 1.82218 8.73396 3.96795 6.08919C4.90012 4.9403 6.04418 3.92937 7.32001 3.09195L7.32002 3.09194C8.63965 2.22573 10.0885 1.55282 11.5757 1.1087L11.4326 0.629607L11.5757 1.1087C15.4676 -0.0536051 19.5628 0.648008 23.1756 2.77981L23.4262 2.35507L23.1756 2.77981C26.8659 4.95733 30.0406 8.61473 31.9583 13.2714C32.1029 13.7 32.4233 14.0709 32.8751 14.2599ZM32.8751 14.2599L33.0681 13.7986L32.8751 14.2599C32.8751 14.2599 32.8751 14.2599 32.8751 14.2599ZM33.5069 13.8851V13.8851Z" fill="white" stroke="black"/>
</svg>
