<svg width="20" height="20" viewBox="0 0 20 20" fill="none" xmlns="http://www.w3.org/2000/svg">
<path d="M10.2326 0C7.65807 0 5.5814 2.07667 5.5814 4.65116V7.44186C5.5814 8.94804 6.31904 10.2998 7.44186 11.1483V13.2558C7.44186 13.3049 7.43278 13.3467 7.31105 13.4593C7.18932 13.5719 6.97311 13.7227 6.68605 13.8663C6.11374 14.1533 5.28707 14.4477 4.44768 14.8547C3.60829 15.2616 2.73801 15.7794 2.06396 16.5262C1.3899 17.2729 0.930237 18.274 0.930237 19.5349V20H19.5349V19.5349C19.5349 18.2631 19.0752 17.2584 18.4012 16.5116C17.7271 15.7649 16.8568 15.2562 16.0174 14.8547C15.1781 14.4531 14.3496 14.1497 13.7791 13.8663C13.4938 13.7246 13.274 13.5865 13.1541 13.4738C13.0342 13.3612 13.0233 13.314 13.0233 13.2558V11.1483C14.1461 10.2998 14.8837 8.94804 14.8837 7.44186V4.65116C14.8837 2.07667 12.8071 0 10.2326 0ZM10.2326 0.930233C12.3092 0.930233 13.9535 2.57449 13.9535 4.65116V7.44186C13.9535 8.72456 13.2831 9.88009 12.2965 10.5378L12.093 10.6831V13.2558C12.093 13.6156 12.2783 13.9335 12.5145 14.157C12.7507 14.3805 13.0469 14.5476 13.3721 14.7093C14.0225 15.0327 14.822 15.3198 15.6105 15.6977C16.399 16.0756 17.1566 16.5316 17.7035 17.1366C18.1577 17.6381 18.4212 18.2813 18.5174 19.0698H1.94768C2.04397 18.2903 2.30923 17.6544 2.76163 17.1512C3.30851 16.5443 4.06614 16.081 4.85466 15.6977C5.64317 15.3143 6.44441 15.0182 7.09303 14.6948C7.41643 14.5331 7.71621 14.3623 7.95059 14.1424C8.18496 13.9226 8.3721 13.6137 8.3721 13.2558V10.6831L8.16861 10.5378C7.18205 9.88009 6.51163 8.72456 6.51163 7.44186V4.65116C6.51163 2.57449 8.15589 0.930233 10.2326 0.930233Z" fill="black"/>
</svg>
