<svg width="40" height="40" viewBox="0 0 40 40" fill="none" xmlns="http://www.w3.org/2000/svg">
<g clip-path="url(#clip0_49_159)">
<rect width="48" height="48" fill="black"/>
<path fill-rule="evenodd" clip-rule="evenodd" d="M29.9492 15.8801C29.9023 14.8174 29.7304 14.0868 29.4842 13.4537C29.2302 12.7818 28.8394 12.1802 28.3274 11.68C27.8272 11.1721 27.2215 10.7774 26.5572 10.5274C25.9204 10.2813 25.1934 10.1094 24.1306 10.0626C23.0597 10.0118 22.7198 10 20.0039 10C17.288 10 16.948 10.0118 15.8812 10.0586C14.8183 10.1055 14.0876 10.2775 13.4546 10.5235C12.7823 10.7774 12.1806 11.1681 11.6803 11.68C11.1723 12.1802 10.7777 12.7857 10.5275 13.4499C10.2813 14.0868 10.1094 14.8134 10.0626 15.8761C10.0118 16.9467 10 17.2866 10 20.002C10 22.7174 10.0118 23.0572 10.0586 24.1239C10.1055 25.1866 10.2775 25.9172 10.5237 26.5502C10.7777 27.2222 11.1723 27.8238 11.6803 28.3239C12.1806 28.8319 12.7863 29.2265 13.4506 29.4765C14.0876 29.7227 14.8143 29.8945 15.8774 29.9414C16.9441 29.9884 17.2842 30 20.0001 30C22.716 30 23.0559 29.9884 24.1228 29.9414C25.1857 29.8945 25.9164 29.7227 26.5494 29.4765C27.8938 28.9569 28.9567 27.8942 29.4764 26.5502C29.7225 25.9133 29.8945 25.1866 29.9414 24.1239C29.9882 23.0572 30 22.7174 30 20.002C30 17.2866 29.996 16.9467 29.9492 15.8801ZM28.1478 24.0458C28.1047 25.0225 27.9406 25.55 27.8039 25.9016C27.4677 26.7729 26.7761 27.4644 25.9046 27.8005C25.5529 27.9372 25.0216 28.1013 24.0484 28.1442C22.9933 28.1912 22.6769 28.2028 20.0079 28.2028C17.3388 28.2028 17.0184 28.1912 15.9671 28.1442C14.9902 28.1013 14.4626 27.9372 14.1109 27.8005C13.6773 27.6402 13.2825 27.3863 12.9621 27.0542C12.63 26.7299 12.376 26.3391 12.2157 25.9056C12.0789 25.5539 11.9148 25.0225 11.8719 24.0497C11.8249 22.9948 11.8133 22.6783 11.8133 20.0098C11.8133 17.3412 11.8249 17.0209 11.8719 15.97C11.9148 14.9932 12.0789 14.4658 12.2157 14.1141C12.376 13.6804 12.63 13.2859 12.9661 12.9654C13.2903 12.6333 13.6811 12.3793 14.1149 12.2192C14.4666 12.0825 14.9981 11.9184 15.9711 11.8754C17.0262 11.8285 17.3428 11.8168 20.0117 11.8168C22.6847 11.8168 23.0011 11.8285 24.0524 11.8754C25.0293 11.9184 25.5569 12.0825 25.9086 12.2192C26.3423 12.3793 26.737 12.6333 27.0574 12.9654C27.3896 13.2897 27.6436 13.6804 27.8039 14.1141C27.9406 14.4658 28.1047 14.997 28.1478 15.97C28.1946 17.0249 28.2064 17.3412 28.2064 20.0098C28.2064 22.6783 28.1946 22.9909 28.1478 24.0458ZM20.0039 14.8643C17.1669 14.8643 14.8652 17.1655 14.8652 20.002C14.8652 22.8386 17.1669 25.1398 20.0039 25.1398C22.841 25.1398 25.1426 22.8386 25.1426 20.002C25.1426 17.1655 22.841 14.8643 20.0039 14.8643ZM20.0039 23.3348C18.1634 23.3348 16.6705 21.8423 16.6705 20.002C16.6705 18.1618 18.1634 16.6693 20.0039 16.6693C21.8445 16.6693 23.3373 18.1618 23.3373 20.002C23.3373 21.8423 21.8445 23.3348 20.0039 23.3348ZM25.3458 15.8606C26.0084 15.8606 26.5456 15.3235 26.5456 14.6611C26.5456 13.9986 26.0084 13.4617 25.3458 13.4617C24.6833 13.4617 24.1461 13.9986 24.1461 14.6611C24.1461 15.3235 24.6833 15.8606 25.3458 15.8606Z" fill="white"/>
</g>
<defs>
<clipPath id="clip0_49_159">
<rect width="40" height="40" fill="white"/>
</clipPath>
</defs>
</svg>
