<svg width="26" height="26" viewBox="0 0 26 26" fill="none" xmlns="http://www.w3.org/2000/svg">
<g clip-path="url(#clip0_201_113)">
<path d="M13 0C12.4556 0 11.4562 0.0954689 10.5787 0.82875C10.1522 1.18625 7.59078 3.43891 5.08625 5.655C2.58172 7.87109 0.17875 10.01 0.17875 10.01C0.065 10.1075 0 10.2497 0 10.4V25.48C0 25.7664 0.233594 26 0.52 26H25.48C25.7664 26 26 25.7664 26 25.48V10.4C26 10.2497 25.935 10.1075 25.8212 10.01C25.8212 10.01 23.4406 7.89547 20.9462 5.6875C18.4519 3.47953 15.8803 1.21266 15.4212 0.82875C14.5437 0.0934377 13.5444 0 13 0ZM13 1.04C13.4286 1.04 14.1436 1.11312 14.755 1.625C15.1267 1.93578 17.7531 4.26156 20.2475 6.4675C22.6505 8.59219 24.7934 10.4792 24.96 10.6275V10.66L21.84 13.13V9.36C21.84 9.07359 21.6064 8.84 21.32 8.84H4.68C4.66375 8.84 4.6475 8.84 4.63125 8.84C4.615 8.84 4.59875 8.84 4.5825 8.84C4.33469 8.88672 4.15594 9.10609 4.16 9.36V13.13L1.04 10.66V10.6275C1.20859 10.4792 3.37187 8.56781 5.785 6.435C8.28953 4.22094 10.918 1.89719 11.245 1.625C11.8564 1.11312 12.5734 1.04 13 1.04ZM5.2 9.88H20.8V13.9587L17.5012 16.5587C16.8431 16.0448 15.9453 15.338 15.6162 15.08H18.2C18.3869 15.082 18.5616 14.9845 18.657 14.822C18.7505 14.6595 18.7505 14.4605 18.657 14.298C18.5616 14.1355 18.3869 14.038 18.2 14.04H7.8C7.78375 14.04 7.7675 14.04 7.75125 14.04C7.735 14.04 7.71875 14.04 7.7025 14.04C7.41609 14.0664 7.20484 14.3223 7.23125 14.6087C7.25766 14.8952 7.51359 15.1064 7.8 15.08H10.3837C10.0547 15.338 9.15687 16.0448 8.49875 16.5587L5.2 13.9587V9.88ZM7.65375 11.44C7.36734 11.4806 7.16625 11.7467 7.20687 12.0331C7.2475 12.3195 7.51359 12.5206 7.8 12.48H18.2C18.3869 12.482 18.5616 12.3845 18.657 12.222C18.7505 12.0595 18.7505 11.8605 18.657 11.698C18.5616 11.5355 18.3869 11.438 18.2 11.44H7.8C7.78375 11.44 7.7675 11.44 7.75125 11.44C7.735 11.44 7.71875 11.44 7.7025 11.44C7.68625 11.44 7.67 11.44 7.65375 11.44ZM1.04 11.9762L7.65375 17.2087C4.90547 19.3578 1.80172 21.7791 1.04 22.3762V11.9762ZM24.96 11.9762V22.3762C24.1983 21.7791 21.0945 19.3578 18.3462 17.2087L24.96 11.9762ZM13 15.08C13.3839 15.08 14.0847 15.1897 14.755 15.7137C15.5228 16.313 24.698 23.4873 24.96 23.6925V24.96H1.04V23.6925C1.30203 23.4873 10.4772 16.313 11.245 15.7137C11.9153 15.1897 12.6161 15.08 13 15.08Z" fill="black"/>
</g>
<defs>
<clipPath id="clip0_201_113">
<rect width="26" height="26" fill="white"/>
</clipPath>
</defs>
</svg>
