<svg width="26" height="26" viewBox="0 0 26 26" fill="none" xmlns="http://www.w3.org/2000/svg">
<g clip-path="url(#clip0_50_249)">
<path d="M14.56 0C11.7589 0 9.47987 2.22828 9.37628 5.005L6.77628 6.19125L0.747527 3.16875C0.656121 3.12406 0.554558 3.10781 0.455027 3.12C0.192996 3.1525 -0.00200449 3.37594 2.67599e-05 3.64V22.36C-0.00200449 22.5611 0.111746 22.7439 0.292527 22.8312L6.53253 25.9512C6.67675 26.0203 6.84331 26.0203 6.98753 25.9512L13.0163 22.9287L19.5488 25.9512C19.695 26.0162 19.8636 26.0102 20.0038 25.935L25.7238 22.815C25.8924 22.7256 25.998 22.5509 26 22.36V3.64C25.998 3.45922 25.9025 3.29062 25.7461 3.19719C25.5897 3.10375 25.3967 3.09969 25.2363 3.185L19.6788 6.2075C19.7255 5.86828 19.76 5.53312 19.76 5.2C19.76 2.33391 17.4261 0 14.56 0ZM14.56 1.04C16.8635 1.04 18.72 2.89656 18.72 5.2C18.72 7.13172 17.6089 9.55297 16.4613 11.4562C15.5127 13.0284 14.8607 13.8105 14.56 14.1862C14.2635 13.8227 13.6114 13.0731 12.6588 11.505C11.57 9.71141 10.5199 7.43437 10.4163 5.50875C10.4671 5.37672 10.461 5.23047 10.4 5.1025C10.4528 2.84375 12.2891 1.04 14.56 1.04ZM14.56 3.12C13.13 3.12 11.96 4.29 11.96 5.72C11.96 7.15 13.13 8.32 14.56 8.32C15.99 8.32 17.16 7.15 17.16 5.72C17.16 4.29 15.99 3.12 14.56 3.12ZM14.56 4.16C15.4274 4.16 16.12 4.85266 16.12 5.72C16.12 6.58734 15.4274 7.28 14.56 7.28C13.6927 7.28 13 6.58734 13 5.72C13 4.85266 13.6927 4.16 14.56 4.16ZM1.04003 4.485L6.53253 7.23125C6.67065 7.29625 6.83315 7.29625 6.97128 7.23125L9.40878 6.12625C9.66675 8.20625 10.7433 10.3309 11.7813 12.0412C12.9736 14.0055 14.17 15.4212 14.17 15.4212C14.2716 15.537 14.4178 15.602 14.5722 15.598C14.7246 15.5959 14.8708 15.5248 14.9663 15.405C14.9663 15.405 16.1464 13.9669 17.3388 11.9925C18.1838 10.5909 19.0369 8.92328 19.4675 7.2475L19.695 7.28C19.8027 7.29016 19.9103 7.26781 20.0038 7.215L24.96 4.5175V22.0512L19.7438 24.895L13.2113 21.8887C13.0732 21.8237 12.9107 21.8237 12.7725 21.8887L6.76003 24.895L1.04003 22.035V4.485Z" fill="black"/>
</g>
<defs>
<clipPath id="clip0_50_249">
<rect width="26" height="26" fill="white"/>
</clipPath>
</defs>
</svg>
