<svg width="40" height="40" viewBox="0 0 40 40" fill="none" xmlns="http://www.w3.org/2000/svg">
<g clip-path="url(#clip0_50_217)">
<path fill-rule="evenodd" clip-rule="evenodd" d="M48 0H0V48H48V0ZM22.5732 21.0583C22.7769 21.1325 23.8692 21.67 24.0914 21.7812C24.1348 21.8029 24.1754 21.8225 24.2129 21.8406C24.3679 21.9155 24.4726 21.9661 24.5172 22.0407C24.5728 22.1334 24.5728 22.5782 24.3877 23.0973C24.2025 23.6163 23.3148 24.09 22.8879 24.1537C22.5051 24.211 22.0207 24.2348 21.4885 24.0657C21.1658 23.9633 20.7519 23.8266 20.2218 23.5977C18.1391 22.6984 16.7316 20.6799 16.4653 20.298C16.4466 20.2712 16.4335 20.2524 16.4262 20.2427L16.4244 20.2403C16.3066 20.0832 15.519 19.0321 15.519 17.9442C15.519 16.9208 16.0217 16.3843 16.2531 16.1374C16.2689 16.1205 16.2835 16.1049 16.2966 16.0907C16.5003 15.8683 16.741 15.8127 16.8891 15.8127C17.0372 15.8127 17.1855 15.814 17.3149 15.8205C17.3309 15.8213 17.3475 15.8212 17.3647 15.8211C17.4942 15.8203 17.6556 15.8194 17.8149 16.2018C17.876 16.3487 17.9653 16.5662 18.0596 16.7957C18.251 17.2617 18.4627 17.7772 18.4999 17.8517C18.5555 17.9629 18.5925 18.0926 18.5184 18.2409C18.5073 18.2631 18.497 18.2841 18.4872 18.3042C18.4316 18.4178 18.3907 18.5013 18.2962 18.6116C18.2593 18.6548 18.221 18.7013 18.1828 18.7479C18.1062 18.8411 18.0296 18.9344 17.9629 19.0008C17.8517 19.1116 17.7359 19.2319 17.8656 19.4543C17.9951 19.6767 18.4411 20.4043 19.1016 20.9935C19.8116 21.6268 20.4287 21.8945 20.7415 22.0302C20.8026 22.0567 20.8521 22.0781 20.8884 22.0963C21.1105 22.2076 21.2402 22.1889 21.3697 22.0407C21.4994 21.8924 21.9252 21.3919 22.0733 21.1695C22.2214 20.9471 22.3695 20.9841 22.5732 21.0583ZM20.0344 27.3166H20.0374C24.111 27.3166 27.4266 24.001 27.4282 19.9256C27.429 17.9508 26.661 16.0938 25.2656 14.6968C23.8701 13.2998 22.0144 12.53 20.0403 12.5293C15.9635 12.5293 12.6479 15.8446 12.6463 19.9196C12.6457 21.3162 13.0365 22.6763 13.7763 23.853L13.952 24.1326L13.2054 26.86L16.0027 26.1262L16.2726 26.2864C17.4073 26.9598 18.7081 27.3161 20.0344 27.3166ZM20.0373 11.0274C22.4161 11.0284 24.6487 11.9545 26.3276 13.6353C28.0065 15.3161 28.9305 17.5502 28.9296 19.9262C28.9276 24.8291 24.9382 28.8183 20.0374 28.8183H20.0337C18.5455 28.8179 17.0831 28.4445 15.7843 27.736L11.0704 28.9726L12.3319 24.3647C11.5537 23.0161 11.1442 21.4864 11.1449 19.9191C11.1468 15.0163 15.1359 11.0274 20.0373 11.0274Z" fill="black"/>
</g>
<defs>
<clipPath id="clip0_50_217">
<rect width="40" height="40" fill="white"/>
</clipPath>
</defs>
</svg>
